<svg width="25" height="25" viewBox="0 0 25 25" fill="none" xmlns="http://www.w3.org/2000/svg">
<path d="M20.2233 5.20908H16.0512V4.95034C16.0512 4.06094 15.3235 3.33325 14.4341 3.33325H10.6016C9.71222 3.33325 8.98453 4.06094 8.98453 4.95034V5.20908H4.79627C3.51877 5.20908 2.5 6.24401 2.5 7.50534V20.1995C2.5 21.477 3.53494 22.4958 4.79627 22.4958H20.2233C21.5008 22.4958 22.5196 21.4608 22.5196 20.1995V7.50534C22.5357 6.24401 21.5008 5.20908 20.2233 5.20908Z" stroke="#2F2727" stroke-width="1.0001" stroke-miterlimit="10"/>
<path d="M12.5099 18.9705C15.3321 18.9705 17.6199 16.6827 17.6199 13.8605C17.6199 11.0383 15.3321 8.75049 12.5099 8.75049C9.68773 8.75049 7.3999 11.0383 7.3999 13.8605C7.3999 16.6827 9.68773 18.9705 12.5099 18.9705Z" stroke="#2F2727" stroke-width="1.0001" stroke-miterlimit="10"/>
<path d="M19.4708 9.72065C20.0156 9.72065 20.4572 9.27901 20.4572 8.73423C20.4572 8.18944 20.0156 7.7478 19.4708 7.7478C18.926 7.7478 18.4844 8.18944 18.4844 8.73423C18.4844 9.27901 18.926 9.72065 19.4708 9.72065Z" stroke="#2F2727" stroke-width="1.0001" stroke-miterlimit="10"/>
</svg>
