<svg width="25" height="25" viewBox="0 0 25 25" fill="none" xmlns="http://www.w3.org/2000/svg">
<path d="M20.2075 9.91093L22.2312 7.88401C22.5474 7.5673 22.5474 7.07641 22.2312 6.7597L18.1996 2.73753C17.8834 2.42082 17.3933 2.42082 17.0771 2.73753L15.0534 4.74861L13.0455 2.73753C12.7292 2.42082 12.2391 2.42082 11.9229 2.73753L9.89921 4.74861L7.8913 2.73753C7.5751 2.42082 7.08498 2.42082 6.76877 2.73753L2.73715 6.77553C2.42095 7.09224 2.42095 7.58313 2.73715 7.89984L4.76087 9.92676L2.73715 11.9378C2.42095 12.2546 2.42095 12.7454 2.73715 13.0622L4.76087 15.0891L2.73715 17.1002C2.42095 17.4169 2.42095 17.9078 2.73715 18.2245L6.76877 22.2625C7.08498 22.5792 7.5751 22.5792 7.8913 22.2625L9.91502 20.2355L11.9387 22.2625C12.2549 22.5792 12.7451 22.5792 13.0613 22.2625L15.085 20.2355L17.1087 22.2625C17.4249 22.5792 17.915 22.5792 18.2312 22.2625L22.2628 18.2245C22.5791 17.9078 22.5791 17.4169 22.2628 17.1002L20.2391 15.0732L22.2628 13.0463C22.5791 12.7296 22.5791 12.2387 22.2628 11.922L20.2075 9.91093Z" stroke="white" stroke-width="1.0001" stroke-miterlimit="10"/>
<path d="M4.74512 9.91099L7.32219 7.32983" stroke="white" stroke-width="1.0001" stroke-miterlimit="10"/>
<path d="M10.9902 19.1429L20.2076 9.91089" stroke="white" stroke-width="1.0001" stroke-miterlimit="10"/>
<path d="M6.92676 12.8879L15.0532 4.74854" stroke="white" stroke-width="1.0001" stroke-miterlimit="10"/>
<path d="M14.6421 20.6157L17.6302 17.6228" stroke="white" stroke-width="1.0001" stroke-miterlimit="10"/>
<path d="M4.80811 20.3146L17.6302 7.47217" stroke="white" stroke-width="1.0001" stroke-miterlimit="10"/>
</svg>
